<svg width="185" height="15" viewBox="0 0 185 15" fill="none" xmlns="http://www.w3.org/2000/svg">
<path d="M1.53613 11H0.374023V1.00586H5.94531V2.03809H1.53613V5.69531H5.67871V6.72754H1.53613V11ZM12.043 11L11.8174 9.93359H11.7627C11.389 10.403 11.0153 10.722 10.6416 10.8906C10.2725 11.0547 9.8099 11.1367 9.25391 11.1367C8.51107 11.1367 7.92773 10.9453 7.50391 10.5625C7.08464 10.1797 6.875 9.63509 6.875 8.92871C6.875 7.41569 8.08496 6.62272 10.5049 6.5498L11.7764 6.50879V6.04395C11.7764 5.45605 11.6488 5.02311 11.3936 4.74512C11.1429 4.46257 10.7396 4.32129 10.1836 4.32129C9.55924 4.32129 8.85286 4.5127 8.06445 4.89551L7.71582 4.02734C8.08496 3.82682 8.48828 3.6696 8.92578 3.55566C9.36784 3.44173 9.8099 3.38477 10.252 3.38477C11.1452 3.38477 11.806 3.58301 12.2344 3.97949C12.6673 4.37598 12.8838 5.01172 12.8838 5.88672V11H12.043ZM9.47949 10.2002C10.1859 10.2002 10.7396 10.0065 11.1406 9.61914C11.5462 9.23177 11.749 8.68945 11.749 7.99219V7.31543L10.6143 7.36328C9.71191 7.39518 9.06022 7.53646 8.65918 7.78711C8.2627 8.0332 8.06445 8.41829 8.06445 8.94238C8.06445 9.35254 8.1875 9.66471 8.43359 9.87891C8.68424 10.0931 9.03288 10.2002 9.47949 10.2002ZM18.6465 3.37109C18.9792 3.37109 19.2777 3.39844 19.542 3.45312L19.3848 4.50586C19.0749 4.4375 18.8014 4.40332 18.5645 4.40332C17.9583 4.40332 17.4388 4.64941 17.0059 5.1416C16.5775 5.63379 16.3633 6.24674 16.3633 6.98047V11H15.2285V3.50781H16.165L16.2949 4.89551H16.3496C16.6276 4.40788 16.9626 4.0319 17.3545 3.76758C17.7464 3.50326 18.1771 3.37109 18.6465 3.37109ZM27.4102 7.24707C27.4102 8.46842 27.1025 9.42318 26.4873 10.1113C25.8721 10.7949 25.0221 11.1367 23.9375 11.1367C23.2676 11.1367 22.6729 10.9795 22.1533 10.665C21.6338 10.3506 21.2327 9.89941 20.9502 9.31152C20.6676 8.72363 20.5264 8.03548 20.5264 7.24707C20.5264 6.02572 20.8317 5.07552 21.4424 4.39648C22.0531 3.71289 22.9007 3.37109 23.9854 3.37109C25.0335 3.37109 25.8652 3.71973 26.4805 4.41699C27.1003 5.11426 27.4102 6.05762 27.4102 7.24707ZM21.7021 7.24707C21.7021 8.2041 21.8936 8.93327 22.2764 9.43457C22.6592 9.93587 23.222 10.1865 23.9648 10.1865C24.7077 10.1865 25.2705 9.93815 25.6533 9.44141C26.0407 8.9401 26.2344 8.20866 26.2344 7.24707C26.2344 6.2946 26.0407 5.57227 25.6533 5.08008C25.2705 4.58333 24.7031 4.33496 23.9512 4.33496C23.2083 4.33496 22.6478 4.57878 22.2695 5.06641C21.8913 5.55404 21.7021 6.28092 21.7021 7.24707ZM30.5273 7.16504C30.7233 6.88704 31.0218 6.52246 31.4229 6.07129L33.8428 3.50781H35.1895L32.1543 6.7002L35.4014 11H34.0273L31.3818 7.45898L30.5273 8.19727V11H29.4062V0.363281H30.5273V6.00293C30.5273 6.25358 30.5091 6.64095 30.4727 7.16504H30.5273ZM41.7314 6.84375V11H40.5693V1.00586H43.3105C44.5365 1.00586 45.4411 1.24056 46.0244 1.70996C46.6123 2.17936 46.9062 2.88574 46.9062 3.8291C46.9062 5.15072 46.2363 6.04395 44.8965 6.50879L47.6104 11H46.2363L43.8164 6.84375H41.7314ZM41.7314 5.8457H43.3242C44.1445 5.8457 44.7461 5.68392 45.1289 5.36035C45.5117 5.03223 45.7031 4.54232 45.7031 3.89062C45.7031 3.22982 45.5072 2.75358 45.1152 2.46191C44.7279 2.17025 44.1035 2.02441 43.2422 2.02441H41.7314V5.8457ZM53.6602 11L53.4346 9.93359H53.3799C53.0062 10.403 52.6325 10.722 52.2588 10.8906C51.8896 11.0547 51.4271 11.1367 50.8711 11.1367C50.1283 11.1367 49.5449 10.9453 49.1211 10.5625C48.7018 10.1797 48.4922 9.63509 48.4922 8.92871C48.4922 7.41569 49.7021 6.62272 52.1221 6.5498L53.3936 6.50879V6.04395C53.3936 5.45605 53.266 5.02311 53.0107 4.74512C52.7601 4.46257 52.3568 4.32129 51.8008 4.32129C51.1764 4.32129 50.4701 4.5127 49.6816 4.89551L49.333 4.02734C49.7021 3.82682 50.1055 3.6696 50.543 3.55566C50.985 3.44173 51.4271 3.38477 51.8691 3.38477C52.7624 3.38477 53.4232 3.58301 53.8516 3.97949C54.2845 4.37598 54.501 5.01172 54.501 5.88672V11H53.6602ZM51.0967 10.2002C51.8031 10.2002 52.3568 10.0065 52.7578 9.61914C53.1634 9.23177 53.3662 8.68945 53.3662 7.99219V7.31543L52.2314 7.36328C51.3291 7.39518 50.6774 7.53646 50.2764 7.78711C49.8799 8.0332 49.6816 8.41829 49.6816 8.94238C49.6816 9.35254 49.8047 9.66471 50.0508 9.87891C50.3014 10.0931 50.6501 10.2002 51.0967 10.2002ZM61.6787 8.95605C61.6787 9.65332 61.4189 10.1911 60.8994 10.5693C60.3799 10.9476 59.6507 11.1367 58.7119 11.1367C57.7184 11.1367 56.9437 10.9795 56.3877 10.665V9.6123C56.7477 9.7946 57.1328 9.93815 57.543 10.043C57.9577 10.1478 58.3564 10.2002 58.7393 10.2002C59.3317 10.2002 59.7874 10.1068 60.1064 9.91992C60.4255 9.72852 60.585 9.43913 60.585 9.05176C60.585 8.76009 60.4574 8.51172 60.2021 8.30664C59.9515 8.09701 59.4593 7.85091 58.7256 7.56836C58.0283 7.30859 57.5316 7.08301 57.2354 6.8916C56.9437 6.69564 56.7249 6.47461 56.5791 6.22852C56.4378 5.98242 56.3672 5.68848 56.3672 5.34668C56.3672 4.736 56.6156 4.25521 57.1123 3.9043C57.609 3.54883 58.2904 3.37109 59.1562 3.37109C59.9629 3.37109 60.7513 3.53516 61.5215 3.86328L61.1182 4.78613C60.3662 4.47624 59.6849 4.32129 59.0742 4.32129C58.5365 4.32129 58.1309 4.4056 57.8574 4.57422C57.584 4.74284 57.4473 4.97526 57.4473 5.27148C57.4473 5.47201 57.4974 5.6429 57.5977 5.78418C57.7025 5.92546 57.8688 6.0599 58.0967 6.1875C58.3245 6.3151 58.762 6.49967 59.4092 6.74121C60.2979 7.06478 60.8971 7.39062 61.207 7.71875C61.5215 8.04688 61.6787 8.45931 61.6787 8.95605ZM65.9512 10.2002C66.1517 10.2002 66.3454 10.1865 66.5322 10.1592C66.7191 10.1273 66.8672 10.0954 66.9766 10.0635V10.9316C66.8535 10.9909 66.6712 11.0387 66.4297 11.0752C66.1927 11.1162 65.9785 11.1367 65.7871 11.1367C64.3379 11.1367 63.6133 10.3734 63.6133 8.84668V4.38965H62.54V3.84277L63.6133 3.37109L64.0918 1.77148H64.748V3.50781H66.9219V4.38965H64.748V8.79883C64.748 9.25 64.8551 9.59635 65.0693 9.83789C65.2835 10.0794 65.5775 10.2002 65.9512 10.2002ZM71.6455 11.1367C70.5381 11.1367 69.6631 10.7995 69.0205 10.125C68.3825 9.45052 68.0635 8.514 68.0635 7.31543C68.0635 6.10775 68.3597 5.14844 68.9521 4.4375C69.5492 3.72656 70.349 3.37109 71.3516 3.37109C72.2904 3.37109 73.0332 3.68099 73.5801 4.30078C74.127 4.91602 74.4004 5.72949 74.4004 6.74121V7.45898H69.2393C69.262 8.33854 69.4831 9.00618 69.9023 9.46191C70.3262 9.91764 70.9209 10.1455 71.6865 10.1455C72.4932 10.1455 73.2907 9.97689 74.0791 9.63965V10.6514C73.6781 10.8245 73.2975 10.9476 72.9375 11.0205C72.582 11.098 72.1514 11.1367 71.6455 11.1367ZM71.3379 4.32129C70.7363 4.32129 70.2555 4.51725 69.8955 4.90918C69.54 5.30111 69.3304 5.84342 69.2666 6.53613H73.1836C73.1836 5.82064 73.0241 5.27376 72.7051 4.89551C72.3861 4.5127 71.9303 4.32129 71.3379 4.32129ZM82.4736 3.50781V4.22559L81.0859 4.38965C81.2135 4.54915 81.3275 4.75879 81.4277 5.01855C81.528 5.27376 81.5781 5.56315 81.5781 5.88672C81.5781 6.62044 81.3275 7.20605 80.8262 7.64355C80.3249 8.08105 79.6367 8.2998 78.7617 8.2998C78.5384 8.2998 78.3288 8.28158 78.1328 8.24512C77.6497 8.50033 77.4082 8.82161 77.4082 9.20898C77.4082 9.41406 77.4925 9.56673 77.6611 9.66699C77.8298 9.7627 78.1191 9.81055 78.5293 9.81055H79.8555C80.6667 9.81055 81.2887 9.98145 81.7217 10.3232C82.1592 10.665 82.3779 11.1618 82.3779 11.8135C82.3779 12.6429 82.0452 13.2741 81.3799 13.707C80.7145 14.1445 79.7438 14.3633 78.4678 14.3633C77.488 14.3633 76.7314 14.181 76.1982 13.8164C75.6696 13.4518 75.4053 12.9368 75.4053 12.2715C75.4053 11.8158 75.5511 11.4215 75.8428 11.0889C76.1344 10.7562 76.5446 10.5306 77.0732 10.4121C76.8818 10.3255 76.7201 10.1911 76.5879 10.0088C76.4603 9.8265 76.3965 9.61458 76.3965 9.37305C76.3965 9.09961 76.4694 8.86035 76.6152 8.65527C76.7611 8.4502 76.9912 8.25195 77.3057 8.06055C76.9183 7.90104 76.6016 7.62988 76.3555 7.24707C76.1139 6.86426 75.9932 6.42676 75.9932 5.93457C75.9932 5.11426 76.2393 4.48307 76.7314 4.04102C77.2236 3.5944 77.9209 3.37109 78.8232 3.37109C79.2152 3.37109 79.5684 3.41667 79.8828 3.50781H82.4736ZM76.499 12.2578C76.499 12.6634 76.6699 12.971 77.0117 13.1807C77.3535 13.3903 77.8434 13.4951 78.4814 13.4951C79.4339 13.4951 80.138 13.3516 80.5938 13.0645C81.054 12.7819 81.2842 12.3968 81.2842 11.9092C81.2842 11.5036 81.1589 11.221 80.9082 11.0615C80.6576 10.9066 80.1859 10.8291 79.4932 10.8291H78.1328C77.6178 10.8291 77.2168 10.9521 76.9297 11.1982C76.6426 11.4443 76.499 11.7975 76.499 12.2578ZM77.1143 5.90723C77.1143 6.43132 77.2624 6.8278 77.5586 7.09668C77.8548 7.36556 78.2673 7.5 78.7959 7.5C79.9033 7.5 80.457 6.96224 80.457 5.88672C80.457 4.76107 79.8965 4.19824 78.7754 4.19824C78.2422 4.19824 77.832 4.3418 77.5449 4.62891C77.2578 4.91602 77.1143 5.34212 77.1143 5.90723ZM88.6191 11L88.3936 9.93359H88.3389C87.9652 10.403 87.5915 10.722 87.2178 10.8906C86.8486 11.0547 86.3861 11.1367 85.8301 11.1367C85.0872 11.1367 84.5039 10.9453 84.0801 10.5625C83.6608 10.1797 83.4512 9.63509 83.4512 8.92871C83.4512 7.41569 84.6611 6.62272 87.0811 6.5498L88.3525 6.50879V6.04395C88.3525 5.45605 88.2249 5.02311 87.9697 4.74512C87.7191 4.46257 87.3158 4.32129 86.7598 4.32129C86.1354 4.32129 85.429 4.5127 84.6406 4.89551L84.292 4.02734C84.6611 3.82682 85.0645 3.6696 85.502 3.55566C85.944 3.44173 86.3861 3.38477 86.8281 3.38477C87.7214 3.38477 88.3822 3.58301 88.8105 3.97949C89.2435 4.37598 89.46 5.01172 89.46 5.88672V11H88.6191ZM86.0557 10.2002C86.762 10.2002 87.3158 10.0065 87.7168 9.61914C88.1224 9.23177 88.3252 8.68945 88.3252 7.99219V7.31543L87.1904 7.36328C86.2881 7.39518 85.6364 7.53646 85.2354 7.78711C84.8389 8.0332 84.6406 8.41829 84.6406 8.94238C84.6406 9.35254 84.7637 9.66471 85.0098 9.87891C85.2604 10.0931 85.609 10.2002 86.0557 10.2002ZM95.2227 3.37109C95.5553 3.37109 95.8538 3.39844 96.1182 3.45312L95.9609 4.50586C95.651 4.4375 95.3776 4.40332 95.1406 4.40332C94.5345 4.40332 94.015 4.64941 93.582 5.1416C93.1536 5.63379 92.9395 6.24674 92.9395 6.98047V11H91.8047V3.50781H92.7412L92.8711 4.89551H92.9258C93.2038 4.40788 93.5387 4.0319 93.9307 3.76758C94.3226 3.50326 94.7533 3.37109 95.2227 3.37109ZM104.629 10.2754C104.629 9.97005 104.697 9.73991 104.834 9.58496C104.975 9.42546 105.176 9.3457 105.436 9.3457C105.7 9.3457 105.905 9.42546 106.051 9.58496C106.201 9.73991 106.276 9.97005 106.276 10.2754C106.276 10.5716 106.201 10.7995 106.051 10.959C105.9 11.1185 105.695 11.1982 105.436 11.1982C105.203 11.1982 105.009 11.1276 104.854 10.9863C104.704 10.8405 104.629 10.6035 104.629 10.2754ZM119.483 11H118.376V3.87695C118.376 3.28451 118.394 2.72396 118.431 2.19531C118.335 2.29102 118.228 2.39128 118.109 2.49609C117.991 2.60091 117.449 3.04525 116.482 3.8291L115.881 3.0498L118.526 1.00586H119.483V11ZM132.574 11V6.15332C132.574 5.54264 132.435 5.08691 132.157 4.78613C131.879 4.48535 131.444 4.33496 130.852 4.33496C130.063 4.33496 129.487 4.54915 129.122 4.97754C128.762 5.40592 128.582 6.10775 128.582 7.08301V11H127.447V0.363281H128.582V3.58301C128.582 3.97038 128.564 4.29167 128.527 4.54688H128.596C128.819 4.18685 129.136 3.9043 129.546 3.69922C129.961 3.48958 130.432 3.38477 130.961 3.38477C131.877 3.38477 132.563 3.60352 133.019 4.04102C133.479 4.47396 133.709 5.16439 133.709 6.1123V11H132.574ZM142.514 7.24707C142.514 8.46842 142.206 9.42318 141.591 10.1113C140.976 10.7949 140.126 11.1367 139.041 11.1367C138.371 11.1367 137.776 10.9795 137.257 10.665C136.737 10.3506 136.336 9.89941 136.054 9.31152C135.771 8.72363 135.63 8.03548 135.63 7.24707C135.63 6.02572 135.935 5.07552 136.546 4.39648C137.157 3.71289 138.004 3.37109 139.089 3.37109C140.137 3.37109 140.969 3.71973 141.584 4.41699C142.204 5.11426 142.514 6.05762 142.514 7.24707ZM136.806 7.24707C136.806 8.2041 136.997 8.93327 137.38 9.43457C137.763 9.93587 138.326 10.1865 139.068 10.1865C139.811 10.1865 140.374 9.93815 140.757 9.44141C141.144 8.9401 141.338 8.20866 141.338 7.24707C141.338 6.2946 141.144 5.57227 140.757 5.08008C140.374 4.58333 139.807 4.33496 139.055 4.33496C138.312 4.33496 137.751 4.57878 137.373 5.06641C136.995 5.55404 136.806 6.28092 136.806 7.24707ZM145.576 3.50781V8.36816C145.576 8.97884 145.715 9.43457 145.993 9.73535C146.271 10.0361 146.706 10.1865 147.299 10.1865C148.083 10.1865 148.655 9.97233 149.015 9.54395C149.379 9.11556 149.562 8.41602 149.562 7.44531V3.50781H150.696V11H149.76L149.596 9.99512H149.534C149.302 10.3643 148.978 10.6468 148.563 10.8428C148.153 11.0387 147.684 11.1367 147.155 11.1367C146.244 11.1367 145.56 10.9202 145.104 10.4873C144.653 10.0544 144.428 9.36165 144.428 8.40918V3.50781H145.576ZM156.527 3.37109C156.86 3.37109 157.159 3.39844 157.423 3.45312L157.266 4.50586C156.956 4.4375 156.682 4.40332 156.445 4.40332C155.839 4.40332 155.32 4.64941 154.887 5.1416C154.458 5.63379 154.244 6.24674 154.244 6.98047V11H153.109V3.50781H154.046L154.176 4.89551H154.23C154.508 4.40788 154.843 4.0319 155.235 3.76758C155.627 3.50326 156.058 3.37109 156.527 3.37109ZM167.068 11L166.843 9.93359H166.788C166.414 10.403 166.041 10.722 165.667 10.8906C165.298 11.0547 164.835 11.1367 164.279 11.1367C163.536 11.1367 162.953 10.9453 162.529 10.5625C162.11 10.1797 161.9 9.63509 161.9 8.92871C161.9 7.41569 163.11 6.62272 165.53 6.5498L166.802 6.50879V6.04395C166.802 5.45605 166.674 5.02311 166.419 4.74512C166.168 4.46257 165.765 4.32129 165.209 4.32129C164.585 4.32129 163.878 4.5127 163.09 4.89551L162.741 4.02734C163.11 3.82682 163.514 3.6696 163.951 3.55566C164.393 3.44173 164.835 3.38477 165.277 3.38477C166.171 3.38477 166.831 3.58301 167.26 3.97949C167.693 4.37598 167.909 5.01172 167.909 5.88672V11H167.068ZM164.505 10.2002C165.211 10.2002 165.765 10.0065 166.166 9.61914C166.572 9.23177 166.774 8.68945 166.774 7.99219V7.31543L165.64 7.36328C164.737 7.39518 164.086 7.53646 163.685 7.78711C163.288 8.0332 163.09 8.41829 163.09 8.94238C163.09 9.35254 163.213 9.66471 163.459 9.87891C163.71 10.0931 164.058 10.2002 164.505 10.2002ZM176.386 3.50781V4.22559L174.998 4.38965C175.126 4.54915 175.24 4.75879 175.34 5.01855C175.44 5.27376 175.49 5.56315 175.49 5.88672C175.49 6.62044 175.24 7.20605 174.738 7.64355C174.237 8.08105 173.549 8.2998 172.674 8.2998C172.451 8.2998 172.241 8.28158 172.045 8.24512C171.562 8.50033 171.32 8.82161 171.32 9.20898C171.32 9.41406 171.405 9.56673 171.573 9.66699C171.742 9.7627 172.031 9.81055 172.441 9.81055H173.768C174.579 9.81055 175.201 9.98145 175.634 10.3232C176.071 10.665 176.29 11.1618 176.29 11.8135C176.29 12.6429 175.957 13.2741 175.292 13.707C174.627 14.1445 173.656 14.3633 172.38 14.3633C171.4 14.3633 170.644 14.181 170.11 13.8164C169.582 13.4518 169.317 12.9368 169.317 12.2715C169.317 11.8158 169.463 11.4215 169.755 11.0889C170.047 10.7562 170.457 10.5306 170.985 10.4121C170.794 10.3255 170.632 10.1911 170.5 10.0088C170.372 9.8265 170.309 9.61458 170.309 9.37305C170.309 9.09961 170.382 8.86035 170.527 8.65527C170.673 8.4502 170.903 8.25195 171.218 8.06055C170.83 7.90104 170.514 7.62988 170.268 7.24707C170.026 6.86426 169.905 6.42676 169.905 5.93457C169.905 5.11426 170.151 4.48307 170.644 4.04102C171.136 3.5944 171.833 3.37109 172.735 3.37109C173.127 3.37109 173.48 3.41667 173.795 3.50781H176.386ZM170.411 12.2578C170.411 12.6634 170.582 12.971 170.924 13.1807C171.266 13.3903 171.756 13.4951 172.394 13.4951C173.346 13.4951 174.05 13.3516 174.506 13.0645C174.966 12.7819 175.196 12.3968 175.196 11.9092C175.196 11.5036 175.071 11.221 174.82 11.0615C174.57 10.9066 174.098 10.8291 173.405 10.8291H172.045C171.53 10.8291 171.129 10.9521 170.842 11.1982C170.555 11.4443 170.411 11.7975 170.411 12.2578ZM171.026 5.90723C171.026 6.43132 171.174 6.8278 171.471 7.09668C171.767 7.36556 172.179 7.5 172.708 7.5C173.815 7.5 174.369 6.96224 174.369 5.88672C174.369 4.76107 173.809 4.19824 172.688 4.19824C172.154 4.19824 171.744 4.3418 171.457 4.62891C171.17 4.91602 171.026 5.34212 171.026 5.90723ZM184.391 7.24707C184.391 8.46842 184.083 9.42318 183.468 10.1113C182.853 10.7949 182.003 11.1367 180.918 11.1367C180.248 11.1367 179.653 10.9795 179.134 10.665C178.614 10.3506 178.213 9.89941 177.931 9.31152C177.648 8.72363 177.507 8.03548 177.507 7.24707C177.507 6.02572 177.812 5.07552 178.423 4.39648C179.034 3.71289 179.881 3.37109 180.966 3.37109C182.014 3.37109 182.846 3.71973 183.461 4.41699C184.081 5.11426 184.391 6.05762 184.391 7.24707ZM178.683 7.24707C178.683 8.2041 178.874 8.93327 179.257 9.43457C179.64 9.93587 180.202 10.1865 180.945 10.1865C181.688 10.1865 182.251 9.93815 182.634 9.44141C183.021 8.9401 183.215 8.20866 183.215 7.24707C183.215 6.2946 183.021 5.57227 182.634 5.08008C182.251 4.58333 181.684 4.33496 180.932 4.33496C180.189 4.33496 179.628 4.57878 179.25 5.06641C178.872 5.55404 178.683 6.28092 178.683 7.24707Z" fill="#52647C"/>
</svg>
